<mxfile host="app.diagrams.net" modified="2021-04-24T09:31:21.473Z" agent="5.0 (Windows NT 10.0; Win64; x64) AppleWebKit/537.36 (KHTML, like Gecko) Chrome/89.0.4389.114 Safari/537.36" etag="pryYRz63_Vzrme7UBAiw" version="14.6.1" type="github">
  <diagram id="YST5q9MC97xQ4oyi2NhU" name="Page-1">
    <mxGraphModel dx="1422" dy="762" grid="1" gridSize="10" guides="1" tooltips="1" connect="1" arrows="1" fold="1" page="1" pageScale="1" pageWidth="2339" pageHeight="3300" math="0" shadow="0">
      <root>
        <mxCell id="0" />
        <mxCell id="1" parent="0" />
        <mxCell id="n2smtvXn-CVyRMpiQKYW-1" value="&lt;font style=&quot;font-size: 24px&quot;&gt;Entity层&lt;/font&gt;" style="rounded=1;whiteSpace=wrap;html=1;fillColor=#f5f5f5;strokeColor=#666666;fontColor=#333333;" vertex="1" parent="1">
          <mxGeometry x="240" y="540" width="140" height="60" as="geometry" />
        </mxCell>
        <mxCell id="n2smtvXn-CVyRMpiQKYW-2" value="&lt;font style=&quot;font-size: 24px&quot;&gt;Dao层&lt;/font&gt;" style="rounded=1;whiteSpace=wrap;html=1;fillColor=#f5f5f5;strokeColor=#666666;fontColor=#333333;" vertex="1" parent="1">
          <mxGeometry x="240" y="430" width="140" height="60" as="geometry" />
        </mxCell>
        <mxCell id="n2smtvXn-CVyRMpiQKYW-4" value="&lt;font style=&quot;font-size: 24px&quot;&gt;Service层&lt;/font&gt;" style="rounded=1;whiteSpace=wrap;html=1;fillColor=#f5f5f5;strokeColor=#666666;fontColor=#333333;" vertex="1" parent="1">
          <mxGeometry x="240" y="320" width="140" height="60" as="geometry" />
        </mxCell>
        <mxCell id="n2smtvXn-CVyRMpiQKYW-5" value="&lt;font style=&quot;font-size: 24px&quot;&gt;Controller层&lt;/font&gt;" style="rounded=1;whiteSpace=wrap;html=1;fillColor=#f5f5f5;strokeColor=#666666;fontColor=#333333;" vertex="1" parent="1">
          <mxGeometry x="240" y="210" width="140" height="60" as="geometry" />
        </mxCell>
        <mxCell id="n2smtvXn-CVyRMpiQKYW-6" value="&lt;font style=&quot;font-size: 24px&quot;&gt;View层&lt;/font&gt;" style="rounded=1;whiteSpace=wrap;html=1;fillColor=#f5f5f5;strokeColor=#666666;fontColor=#333333;" vertex="1" parent="1">
          <mxGeometry x="240" y="90" width="140" height="60" as="geometry" />
        </mxCell>
        <mxCell id="n2smtvXn-CVyRMpiQKYW-7" value="&lt;font color=&quot;#333333&quot;&gt;&lt;span style=&quot;font-size: 24px&quot;&gt;数据库&lt;/span&gt;&lt;/font&gt;" style="rounded=0;whiteSpace=wrap;html=1;" vertex="1" parent="1">
          <mxGeometry x="490" y="590" width="120" height="60" as="geometry" />
        </mxCell>
        <mxCell id="n2smtvXn-CVyRMpiQKYW-8" value="" style="endArrow=none;html=1;entryX=1;entryY=0.5;entryDx=0;entryDy=0;exitX=0.5;exitY=0;exitDx=0;exitDy=0;" edge="1" parent="1" source="n2smtvXn-CVyRMpiQKYW-7" target="n2smtvXn-CVyRMpiQKYW-1">
          <mxGeometry width="50" height="50" relative="1" as="geometry">
            <mxPoint x="190" y="780" as="sourcePoint" />
            <mxPoint x="240" y="730" as="targetPoint" />
            <Array as="points">
              <mxPoint x="550" y="570" />
            </Array>
          </mxGeometry>
        </mxCell>
        <mxCell id="n2smtvXn-CVyRMpiQKYW-9" value="&lt;font color=&quot;#333333&quot;&gt;&lt;span style=&quot;font-size: 24px&quot;&gt;数据库访问&lt;/span&gt;&lt;/font&gt;" style="rounded=0;whiteSpace=wrap;html=1;" vertex="1" parent="1">
          <mxGeometry x="490" y="480" width="150" height="60" as="geometry" />
        </mxCell>
        <mxCell id="n2smtvXn-CVyRMpiQKYW-10" value="" style="endArrow=none;html=1;entryX=1;entryY=0.5;entryDx=0;entryDy=0;exitX=0.5;exitY=0;exitDx=0;exitDy=0;" edge="1" parent="1" source="n2smtvXn-CVyRMpiQKYW-9" target="n2smtvXn-CVyRMpiQKYW-2">
          <mxGeometry width="50" height="50" relative="1" as="geometry">
            <mxPoint x="250" y="770" as="sourcePoint" />
            <mxPoint x="300" y="720" as="targetPoint" />
            <Array as="points">
              <mxPoint x="565" y="460" />
            </Array>
          </mxGeometry>
        </mxCell>
        <mxCell id="n2smtvXn-CVyRMpiQKYW-12" value="&lt;font color=&quot;#333333&quot;&gt;&lt;span style=&quot;font-size: 24px&quot;&gt;模型调用&lt;/span&gt;&lt;/font&gt;" style="rounded=0;whiteSpace=wrap;html=1;" vertex="1" parent="1">
          <mxGeometry x="490" y="370" width="120" height="60" as="geometry" />
        </mxCell>
        <mxCell id="n2smtvXn-CVyRMpiQKYW-13" value="&lt;font color=&quot;#333333&quot;&gt;&lt;span style=&quot;font-size: 24px&quot;&gt;历史数据操作&lt;/span&gt;&lt;/font&gt;" style="rounded=0;whiteSpace=wrap;html=1;" vertex="1" parent="1">
          <mxGeometry x="620" y="370" width="150" height="60" as="geometry" />
        </mxCell>
        <mxCell id="n2smtvXn-CVyRMpiQKYW-14" value="&lt;font color=&quot;#333333&quot;&gt;&lt;span style=&quot;font-size: 24px&quot;&gt;数据预处理&lt;/span&gt;&lt;/font&gt;" style="rounded=0;whiteSpace=wrap;html=1;" vertex="1" parent="1">
          <mxGeometry x="780" y="370" width="130" height="60" as="geometry" />
        </mxCell>
        <mxCell id="n2smtvXn-CVyRMpiQKYW-15" value="&lt;font color=&quot;#333333&quot;&gt;&lt;span style=&quot;font-size: 24px&quot;&gt;用户管理&lt;/span&gt;&lt;/font&gt;" style="rounded=0;whiteSpace=wrap;html=1;" vertex="1" parent="1">
          <mxGeometry x="920" y="370" width="140" height="60" as="geometry" />
        </mxCell>
        <mxCell id="n2smtvXn-CVyRMpiQKYW-16" value="" style="endArrow=none;html=1;exitX=1;exitY=0.5;exitDx=0;exitDy=0;entryX=0.583;entryY=0;entryDx=0;entryDy=0;entryPerimeter=0;" edge="1" parent="1" source="n2smtvXn-CVyRMpiQKYW-4" target="n2smtvXn-CVyRMpiQKYW-12">
          <mxGeometry width="50" height="50" relative="1" as="geometry">
            <mxPoint x="180" y="450" as="sourcePoint" />
            <mxPoint x="230" y="400" as="targetPoint" />
            <Array as="points">
              <mxPoint x="560" y="350" />
            </Array>
          </mxGeometry>
        </mxCell>
        <mxCell id="n2smtvXn-CVyRMpiQKYW-17" value="" style="endArrow=none;html=1;entryX=1;entryY=0.5;entryDx=0;entryDy=0;exitX=0.5;exitY=0;exitDx=0;exitDy=0;" edge="1" parent="1" source="n2smtvXn-CVyRMpiQKYW-13" target="n2smtvXn-CVyRMpiQKYW-4">
          <mxGeometry width="50" height="50" relative="1" as="geometry">
            <mxPoint x="160" y="440" as="sourcePoint" />
            <mxPoint x="210" y="390" as="targetPoint" />
            <Array as="points">
              <mxPoint x="695" y="350" />
            </Array>
          </mxGeometry>
        </mxCell>
        <mxCell id="n2smtvXn-CVyRMpiQKYW-18" value="" style="endArrow=none;html=1;entryX=1;entryY=0.5;entryDx=0;entryDy=0;exitX=0.5;exitY=0;exitDx=0;exitDy=0;" edge="1" parent="1" source="n2smtvXn-CVyRMpiQKYW-14" target="n2smtvXn-CVyRMpiQKYW-4">
          <mxGeometry width="50" height="50" relative="1" as="geometry">
            <mxPoint x="200" y="590" as="sourcePoint" />
            <mxPoint x="250" y="540" as="targetPoint" />
            <Array as="points">
              <mxPoint x="845" y="350" />
            </Array>
          </mxGeometry>
        </mxCell>
        <mxCell id="n2smtvXn-CVyRMpiQKYW-19" value="" style="endArrow=none;html=1;entryX=1;entryY=0.5;entryDx=0;entryDy=0;exitX=0.5;exitY=0;exitDx=0;exitDy=0;" edge="1" parent="1" source="n2smtvXn-CVyRMpiQKYW-15" target="n2smtvXn-CVyRMpiQKYW-4">
          <mxGeometry width="50" height="50" relative="1" as="geometry">
            <mxPoint x="160" y="540" as="sourcePoint" />
            <mxPoint x="210" y="490" as="targetPoint" />
            <Array as="points">
              <mxPoint x="990" y="350" />
            </Array>
          </mxGeometry>
        </mxCell>
        <mxCell id="n2smtvXn-CVyRMpiQKYW-20" value="&lt;font color=&quot;#333333&quot;&gt;&lt;span style=&quot;font-size: 24px&quot;&gt;参数绑定&lt;/span&gt;&lt;/font&gt;" style="rounded=0;whiteSpace=wrap;html=1;" vertex="1" parent="1">
          <mxGeometry x="490" y="260" width="120" height="60" as="geometry" />
        </mxCell>
        <mxCell id="n2smtvXn-CVyRMpiQKYW-21" value="&lt;font color=&quot;#333333&quot;&gt;&lt;span style=&quot;font-size: 24px&quot;&gt;Service层调用&lt;/span&gt;&lt;/font&gt;" style="rounded=0;whiteSpace=wrap;html=1;" vertex="1" parent="1">
          <mxGeometry x="620" y="260" width="160" height="60" as="geometry" />
        </mxCell>
        <mxCell id="n2smtvXn-CVyRMpiQKYW-22" value="" style="endArrow=none;html=1;entryX=1;entryY=0.5;entryDx=0;entryDy=0;exitX=0.5;exitY=0;exitDx=0;exitDy=0;" edge="1" parent="1" source="n2smtvXn-CVyRMpiQKYW-20" target="n2smtvXn-CVyRMpiQKYW-5">
          <mxGeometry width="50" height="50" relative="1" as="geometry">
            <mxPoint x="170" y="330" as="sourcePoint" />
            <mxPoint x="220" y="280" as="targetPoint" />
            <Array as="points">
              <mxPoint x="550" y="240" />
            </Array>
          </mxGeometry>
        </mxCell>
        <mxCell id="n2smtvXn-CVyRMpiQKYW-23" value="" style="endArrow=none;html=1;entryX=1;entryY=0.5;entryDx=0;entryDy=0;exitX=0.5;exitY=0;exitDx=0;exitDy=0;" edge="1" parent="1" source="n2smtvXn-CVyRMpiQKYW-21" target="n2smtvXn-CVyRMpiQKYW-5">
          <mxGeometry width="50" height="50" relative="1" as="geometry">
            <mxPoint x="190" y="340" as="sourcePoint" />
            <mxPoint x="240" y="290" as="targetPoint" />
            <Array as="points">
              <mxPoint x="700" y="240" />
            </Array>
          </mxGeometry>
        </mxCell>
        <mxCell id="n2smtvXn-CVyRMpiQKYW-24" value="&lt;font color=&quot;#333333&quot;&gt;&lt;span style=&quot;font-size: 24px&quot;&gt;数据上传&lt;/span&gt;&lt;/font&gt;&lt;span style=&quot;color: rgba(0 , 0 , 0 , 0) ; font-family: monospace ; font-size: 0px&quot;&gt;%3CmxGraphModel%3E%3Croot%3E%3CmxCell%20id%3D%220%22%2F%3E%3CmxCell%20id%3D%221%22%20parent%3D%220%22%2F%3E%3CmxCell%20id%3D%222%22%20value%3D%22%26lt%3Bfont%20color%3D%26quot%3B%23333333%26quot%3B%26gt%3B%26lt%3Bspan%20style%3D%26quot%3Bfont-size%3A%2024px%26quot%3B%26gt%3B%E5%8F%82%E6%95%B0%E7%BB%91%E5%AE%9A%26lt%3B%2Fspan%26gt%3B%26lt%3B%2Ffont%26gt%3B%22%20style%3D%22rounded%3D0%3BwhiteSpace%3Dwrap%3Bhtml%3D1%3B%22%20vertex%3D%221%22%20parent%3D%221%22%3E%3CmxGeometry%20x%3D%22490%22%20y%3D%22250%22%20width%3D%22120%22%20height%3D%2260%22%20as%3D%22geometry%22%2F%3E%3C%2FmxCell%3E%3C%2Froot%3E%3C%2FmxGraphModel%3E&lt;/span&gt;" style="rounded=0;whiteSpace=wrap;html=1;" vertex="1" parent="1">
          <mxGeometry x="490" y="150" width="120" height="60" as="geometry" />
        </mxCell>
        <mxCell id="n2smtvXn-CVyRMpiQKYW-25" value="&lt;font color=&quot;#333333&quot;&gt;&lt;span style=&quot;font-size: 24px&quot;&gt;历史数据展示&lt;/span&gt;&lt;/font&gt;" style="rounded=0;whiteSpace=wrap;html=1;" vertex="1" parent="1">
          <mxGeometry x="620" y="150" width="150" height="60" as="geometry" />
        </mxCell>
        <mxCell id="n2smtvXn-CVyRMpiQKYW-26" value="&lt;font color=&quot;#333333&quot;&gt;&lt;span style=&quot;font-size: 24px&quot;&gt;结果展示&lt;/span&gt;&lt;/font&gt;" style="rounded=0;whiteSpace=wrap;html=1;" vertex="1" parent="1">
          <mxGeometry x="780" y="150" width="120" height="60" as="geometry" />
        </mxCell>
        <mxCell id="n2smtvXn-CVyRMpiQKYW-27" value="&lt;font color=&quot;#333333&quot;&gt;&lt;span style=&quot;font-size: 24px&quot;&gt;用户管理&lt;/span&gt;&lt;/font&gt;" style="rounded=0;whiteSpace=wrap;html=1;" vertex="1" parent="1">
          <mxGeometry x="910" y="150" width="120" height="60" as="geometry" />
        </mxCell>
        <mxCell id="n2smtvXn-CVyRMpiQKYW-28" value="" style="endArrow=none;html=1;entryX=1;entryY=0.5;entryDx=0;entryDy=0;exitX=0.5;exitY=0;exitDx=0;exitDy=0;" edge="1" parent="1" source="n2smtvXn-CVyRMpiQKYW-24" target="n2smtvXn-CVyRMpiQKYW-6">
          <mxGeometry width="50" height="50" relative="1" as="geometry">
            <mxPoint x="240" y="230" as="sourcePoint" />
            <mxPoint x="290" y="180" as="targetPoint" />
            <Array as="points">
              <mxPoint x="550" y="120" />
            </Array>
          </mxGeometry>
        </mxCell>
        <mxCell id="n2smtvXn-CVyRMpiQKYW-29" value="" style="endArrow=none;html=1;entryX=1;entryY=0.5;entryDx=0;entryDy=0;exitX=0.5;exitY=0;exitDx=0;exitDy=0;" edge="1" parent="1" source="n2smtvXn-CVyRMpiQKYW-25" target="n2smtvXn-CVyRMpiQKYW-6">
          <mxGeometry width="50" height="50" relative="1" as="geometry">
            <mxPoint x="400" y="240" as="sourcePoint" />
            <mxPoint x="450" y="190" as="targetPoint" />
            <Array as="points">
              <mxPoint x="695" y="120" />
            </Array>
          </mxGeometry>
        </mxCell>
        <mxCell id="n2smtvXn-CVyRMpiQKYW-30" value="" style="endArrow=none;html=1;entryX=1;entryY=0.5;entryDx=0;entryDy=0;exitX=0.468;exitY=-0.036;exitDx=0;exitDy=0;exitPerimeter=0;" edge="1" parent="1" source="n2smtvXn-CVyRMpiQKYW-26" target="n2smtvXn-CVyRMpiQKYW-6">
          <mxGeometry width="50" height="50" relative="1" as="geometry">
            <mxPoint x="420" y="250" as="sourcePoint" />
            <mxPoint x="470" y="200" as="targetPoint" />
            <Array as="points">
              <mxPoint x="836" y="120" />
            </Array>
          </mxGeometry>
        </mxCell>
        <mxCell id="n2smtvXn-CVyRMpiQKYW-31" value="" style="endArrow=none;html=1;exitX=0.5;exitY=0;exitDx=0;exitDy=0;" edge="1" parent="1" source="n2smtvXn-CVyRMpiQKYW-27">
          <mxGeometry width="50" height="50" relative="1" as="geometry">
            <mxPoint x="360" y="270" as="sourcePoint" />
            <mxPoint x="380" y="120" as="targetPoint" />
            <Array as="points">
              <mxPoint x="970" y="120" />
            </Array>
          </mxGeometry>
        </mxCell>
        <mxCell id="n2smtvXn-CVyRMpiQKYW-32" value="" style="shape=flexArrow;endArrow=classic;startArrow=classic;html=1;" edge="1" parent="1">
          <mxGeometry width="50" height="50" relative="1" as="geometry">
            <mxPoint x="309.5" y="205" as="sourcePoint" />
            <mxPoint x="309.5" y="155" as="targetPoint" />
          </mxGeometry>
        </mxCell>
        <mxCell id="n2smtvXn-CVyRMpiQKYW-33" value="" style="shape=flexArrow;endArrow=classic;startArrow=classic;html=1;" edge="1" parent="1">
          <mxGeometry width="50" height="50" relative="1" as="geometry">
            <mxPoint x="309.5" y="320" as="sourcePoint" />
            <mxPoint x="309.5" y="270" as="targetPoint" />
          </mxGeometry>
        </mxCell>
        <mxCell id="n2smtvXn-CVyRMpiQKYW-34" value="" style="shape=flexArrow;endArrow=classic;startArrow=classic;html=1;" edge="1" parent="1">
          <mxGeometry width="50" height="50" relative="1" as="geometry">
            <mxPoint x="309.5" y="430" as="sourcePoint" />
            <mxPoint x="309.5" y="380" as="targetPoint" />
          </mxGeometry>
        </mxCell>
        <mxCell id="n2smtvXn-CVyRMpiQKYW-35" value="" style="shape=flexArrow;endArrow=classic;startArrow=classic;html=1;" edge="1" parent="1">
          <mxGeometry width="50" height="50" relative="1" as="geometry">
            <mxPoint x="309.5" y="540" as="sourcePoint" />
            <mxPoint x="309.5" y="490" as="targetPoint" />
          </mxGeometry>
        </mxCell>
      </root>
    </mxGraphModel>
  </diagram>
</mxfile>
